HIERARCHY
ROOT hip
{
  OFFSET 0.00112043 5.09927 -9.65472
  CHANNELS 6 Xposition Yposition Zposition Zrotation Xrotation Yrotation
  JOINT abdomen
  {
    OFFSET 0 -1.186 -1.5018
    CHANNELS 3 Zrotation Xrotation Yrotation
    JOINT abdomen2
    {
      OFFSET 0 9.964 0.2134
      CHANNELS 3 Zrotation Xrotation Yrotation
      JOINT chest
      {
        OFFSET 0 13.134 -3.2573
        CHANNELS 3 Zrotation Xrotation Yrotation
        JOINT neck
        {
          OFFSET 0 20.686 -1.6905
          CHANNELS 3 Zrotation Xrotation Yrotation
          JOINT head
          {
            OFFSET 0 7.238 -0.1237
            CHANNELS 3 Zrotation Xrotation Yrotation
            End Site
            {
              OFFSET 0 0 0
            }
          }
        }
        JOINT lCollar
        {
          OFFSET 1.7069 20.075 5.0056
          CHANNELS 3 Zrotation Xrotation Yrotation
          JOINT lShldr
          {
            OFFSET 13.6458 -0.047 -4.849
            CHANNELS 3 Zrotation Xrotation Yrotation
            JOINT lForeArm
            {
              OFFSET 28.3255 -0.9759 2.2888
              CHANNELS 3 Zrotation Xrotation Yrotation
              JOINT lHand
              {
                OFFSET 22.1583 -0.53 10.8316
                CHANNELS 3 Zrotation Xrotation Yrotation
                JOINT lThumb1
                {
                  OFFSET 0.786 0.112 2.5817
                  CHANNELS 3 Zrotation Xrotation Yrotation
                  JOINT lThumb2
                  {
                    OFFSET 0.3601 -0.878 4.2331
                    CHANNELS 3 Zrotation Xrotation Yrotation
                    JOINT lThumb2_End
                    {
                      OFFSET 1.8127 -1.216 2.2227
                      CHANNELS 3 Zrotation Xrotation Yrotation
                      End Site
                      {
                        OFFSET 0.0181 -0.0122 0.0222
                      }
                    }
                  }
                }
                JOINT lCarpal1
                {
                  OFFSET 0.9571 1.114 1.7695
                  CHANNELS 3 Zrotation Xrotation Yrotation
                  JOINT lIndex1
                  {
                    OFFSET 4.1246 0.487 4.1451
                    CHANNELS 3 Zrotation Xrotation Yrotation
                    JOINT lIndex2
                    {
                      OFFSET 3.4052 -1.454 2.7682
                      CHANNELS 3 Zrotation Xrotation Yrotation
                      JOINT lIndex2_End
                      {
                        OFFSET 1.4531 -1.795 1.2713
                        CHANNELS 3 Zrotation Xrotation Yrotation
                        End Site
                        {
                          OFFSET 0.0145 -0.0179 0.0127
                        }
                      }
                    }
                  }
                  JOINT lMid1
                  {
                    OFFSET 5.6954 0.21 2.1184
                    CHANNELS 3 Zrotation Xrotation Yrotation
                    JOINT lMid2
                    {
                      OFFSET 3.9766 -1.54 2.3863
                      CHANNELS 3 Zrotation Xrotation Yrotation
                      JOINT lMid2_End
                      {
                        OFFSET 1.4042 -1.926 1.125
                        CHANNELS 3 Zrotation Xrotation Yrotation
                        End Site
                        {
                          OFFSET 0.014 -0.0193 0.0113
                        }
                      }
                    }
                  }
                }
                JOINT lCarpal2
                {
                  OFFSET 2.0956 0.66 -0.3894
                  CHANNELS 3 Zrotation Xrotation Yrotation
                  JOINT lRing1
                  {
                    OFFSET 5.0395 -0.09 2.4971
                    CHANNELS 3 Zrotation Xrotation Yrotation
                    JOINT lRing2
                    {
                      OFFSET 3.7921 -1.552 1.4806
                      CHANNELS 3 Zrotation Xrotation Yrotation
                      JOINT lRing2_End
                      {
                        OFFSET 1.4655 -1.808 0.9609
                        CHANNELS 3 Zrotation Xrotation Yrotation
                        End Site
                        {
                          OFFSET 0.0147 -0.0181 0.0096
                        }
                      }
                    }
                  }
                  JOINT lPinky1
                  {
                    OFFSET 4.9141 -1.269 0.3591
                    CHANNELS 3 Zrotation Xrotation Yrotation
                    JOINT lPinky2
                    {
                      OFFSET 3.1477 -1.685 0.8462
                      CHANNELS 3 Zrotation Xrotation Yrotation
                      JOINT lPinky2_End
                      {
                        OFFSET 0.8055 -1.585 0.7955
                        CHANNELS 3 Zrotation Xrotation Yrotation
                        End Site
                        {
                          OFFSET 0.0081 -0.0158 0.008
                        }
                      }
                    }
                  }
                }
              }
            }
          }
        }
        JOINT rCollar
        {
          OFFSET -1.7069 20.075 5.0056
          CHANNELS 3 Zrotation Xrotation Yrotation
          JOINT rShldr
          {
            OFFSET -13.6458 -0.047 -4.849
            CHANNELS 3 Zrotation Xrotation Yrotation
            JOINT rForeArm
            {
              OFFSET -28.3255 -0.9759 2.2888
              CHANNELS 3 Zrotation Xrotation Yrotation
              JOINT rHand
              {
                OFFSET -22.1583 -0.53 10.8316
                CHANNELS 3 Zrotation Xrotation Yrotation
                JOINT rThumb1
                {
                  OFFSET -0.786 0.112 2.5817
                  CHANNELS 3 Zrotation Xrotation Yrotation
                  JOINT rThumb2
                  {
                    OFFSET -0.3601 -0.878 4.2331
                    CHANNELS 3 Zrotation Xrotation Yrotation
                    JOINT rThumb2_End
                    {
                      OFFSET -1.8127 -1.216 2.2227
                      CHANNELS 3 Zrotation Xrotation Yrotation
                      End Site
                      {
                        OFFSET -0.0181 -0.0122 0.0222
                      }
                    }
                  }
                }
                JOINT rCarpal1
                {
                  OFFSET -0.9571 1.114 1.7695
                  CHANNELS 3 Zrotation Xrotation Yrotation
                  JOINT rIndex1
                  {
                    OFFSET -4.1246 0.487 4.1451
                    CHANNELS 3 Zrotation Xrotation Yrotation
                    JOINT rIndex2
                    {
                      OFFSET -3.4052 -1.454 2.7682
                      CHANNELS 3 Zrotation Xrotation Yrotation
                      JOINT rIndex2_End
                      {
                        OFFSET -1.4531 -1.795 1.2713
                        CHANNELS 3 Zrotation Xrotation Yrotation
                        End Site
                        {
                          OFFSET -0.0145 -0.018 0.0127
                        }
                      }
                    }
                  }
                  JOINT rMid1
                  {
                    OFFSET -5.6954 0.21 2.1184
                    CHANNELS 3 Zrotation Xrotation Yrotation
                    JOINT rMid2
                    {
                      OFFSET -3.9766 -1.54 2.3863
                      CHANNELS 3 Zrotation Xrotation Yrotation
                      JOINT rMid2_End
                      {
                        OFFSET -1.4042 -1.926 1.125
                        CHANNELS 3 Zrotation Xrotation Yrotation
                        End Site
                        {
                          OFFSET -0.014 -0.0193 0.0113
                        }
                      }
                    }
                  }
                }
                JOINT rCarpal2
                {
                  OFFSET -2.0956 0.66 -0.3894
                  CHANNELS 3 Zrotation Xrotation Yrotation
                  JOINT rRing1
                  {
                    OFFSET -5.0395 -0.09 2.4971
                    CHANNELS 3 Zrotation Xrotation Yrotation
                    JOINT rRing2
                    {
                      OFFSET -3.7921 -1.552 1.4806
                      CHANNELS 3 Zrotation Xrotation Yrotation
                      JOINT rRing2_End
                      {
                        OFFSET -1.4655 -1.808 0.9609
                        CHANNELS 3 Zrotation Xrotation Yrotation
                        End Site
                        {
                          OFFSET -0.0147 -0.0181 0.0096
                        }
                      }
                    }
                  }
                  JOINT rPinky1
                  {
                    OFFSET -4.9141 -1.269 0.3592
                    CHANNELS 3 Zrotation Xrotation Yrotation
                    JOINT rPinky2
                    {
                      OFFSET -3.1477 -1.685 0.8462
                      CHANNELS 3 Zrotation Xrotation Yrotation
                      JOINT rPinky2_End
                      {
                        OFFSET -0.8055 -1.585 0.7955
                        CHANNELS 3 Zrotation Xrotation Yrotation
                        End Site
                        {
                          OFFSET -0.0081 -0.0158 0.008
                        }
                      }
                    }
                  }
                }
              }
            }
          }
        }
      }
    }
  }
  JOINT lThigh
  {
    OFFSET 8.367 -8.2066 0.5982
    CHANNELS 3 Zrotation Xrotation Yrotation
    JOINT lShin
    {
      OFFSET 2.1923 -43.463 -0.4932
      CHANNELS 3 Zrotation Xrotation Yrotation
      JOINT lFoot
      {
        OFFSET 0.7333 -45.8593 -2.6451
        CHANNELS 3 Zrotation Xrotation Yrotation
        End Site
        {
          OFFSET 2.6618 -4.2699 12.3931
        }
      }
    }
  }
  JOINT rThigh
  {
    OFFSET -8.367 -8.2066 0.5982
    CHANNELS 3 Zrotation Xrotation Yrotation
    JOINT rShin
    {
      OFFSET -2.1923 -43.463 -0.4931
      CHANNELS 3 Zrotation Xrotation Yrotation
      JOINT rFoot
      {
        OFFSET -0.7333 -45.8593 -2.6451
        CHANNELS 3 Zrotation Xrotation Yrotation
        End Site
        {
          OFFSET -2.6618 -4.2699 12.3931
        }
      }
    }
  }
}
MOTION
Frames:	4
Frame Time:	0.0333333
0 91.7903 2.51682 0 0 -0 0 0 -0 0 0 -0 0 0 -0 0 0 -0 0 0 -0 0 0 -0 1.66051 0.0835086 5.75766 -0.0175111 0.895433 15.7816 7.95139e-016 -1.98785e-016 -0 5.46658e-016 -3.97569e-016 -0 5.96354e-016 0 -0 3.97569e-016 1.98785e-016 9.54166e-015 1.49089e-016 -3.97569e-016 -0 6.4605e-016 0 3.18055e-015 5.96354e-016 0 3.18055e-015 8.94531e-016 -1.98785e-016 6.36111e-015 6.4605e-016 0 3.18055e-015 5.96354e-016 0 3.18055e-015 8.94531e-016 -1.98785e-016 6.36111e-015 1.49089e-016 -3.97569e-016 -0 6.4605e-016 0 3.18055e-015 5.96354e-016 0 3.18055e-015 8.94531e-016 -1.98785e-016 6.36111e-015 6.4605e-016 0 3.18055e-015 5.96354e-016 0 3.18055e-015 8.94531e-016 -1.98785e-016 6.36111e-015 0 0 -0 -1.4496 0.0636048 -5.0245 -1.74811 1.20616 -16.8394 -1.19271e-015 1.98785e-016 -3.18055e-015 -3.97569e-016 1.98785e-016 -3.18055e-015 -2.98177e-016 1.98785e-016 -3.18055e-015 -2.98177e-016 3.97569e-016 -0 4.96962e-016 0 -6.36111e-015 -9.93923e-017 3.97569e-016 -0 -8.94531e-016 5.96354e-016 -0 -3.97569e-016 3.97569e-016 -0 -9.93923e-017 3.97569e-016 -0 -8.94531e-016 5.96354e-016 -0 -3.97569e-016 3.97569e-016 -0 4.96962e-016 0 -6.36111e-015 -9.93923e-017 3.97569e-016 -0 -8.94531e-016 5.96354e-016 -0 -3.97569e-016 3.97569e-016 -0 -9.93923e-017 3.97569e-016 -0 -8.94531e-016 5.96354e-016 -0 -3.97569e-016 3.97569e-016 -0 -4.66111 -0.998717 0.12318 0.00986924 1.54847 0.176523 4.65186 -0.572283 -0.254274 4.66111 -0.998765 -0.123176 -0.00986867 1.54869 -0.176537 -4.65186 -0.572453 0.25427 
1.26221 60.7095 2.72712 0 11.1755 -0 -0.0451704 0.477803 -0.381337 -0.0871641 0.9559 -0.762336 -0.0871641 0.955896 -0.762336 0.00211035 -14.0744 0.000995508 1.32927e-008 -0.218338 5.12357e-007 -4.81234 13.2027 1.11794 -30.5176 -1.16823 0.866721 -34.4692 24.8232 -8.45566 38.3583 -4.31855 -2.48811 -8.17321e-007 -1.12525e-006 3.07174e-006 -5.41365e-007 3.07174e-006 1.12525e-006 -8.17321e-007 -1.12525e-006 3.07174e-006 3.53113e-031 6.36111e-015 -3.18055e-015 -8.17321e-007 -1.12525e-006 3.07174e-006 -5.41365e-007 3.07174e-006 1.12525e-006 -8.17321e-007 -1.12525e-006 3.07174e-006 -8.17321e-007 -1.12525e-006 3.07174e-006 -5.41365e-007 3.07174e-006 1.12525e-006 -8.17321e-007 -1.12525e-006 3.07174e-006 3.53113e-031 6.36111e-015 -3.18055e-015 -8.17321e-007 -1.12525e-006 3.07174e-006 -5.41365e-007 3.07174e-006 1.12525e-006 -8.17321e-007 -1.12525e-006 3.07174e-006 -8.17321e-007 -1.12525e-006 3.07174e-006 -5.41365e-007 3.07174e-006 1.12525e-006 -8.17321e-007 -1.12525e-006 3.07174e-006 16.8295 -3.50433 19.3574 28.1675 -2.26049 2.11661 22.6421 17.334 4.25172 -29.6316 1.7771 -17.8992 1.98785e-015 9.54166e-015 -6.36111e-015 -1.73291e-006 -3.55778e-006 2.68113e-006 -2.28671e-006 3.39616e-006 3.52242e-007 1.98785e-015 -3.18055e-015 -6.36111e-015 -6.36111e-015 9.54166e-015 3.97569e-015 -1.73291e-006 -3.55778e-006 2.68113e-006 -2.28671e-006 3.39616e-006 3.52242e-007 -6.36111e-015 9.54166e-015 3.97569e-015 -1.73291e-006 -3.55778e-006 2.68113e-006 -2.28671e-006 3.39616e-006 3.52242e-007 1.98785e-015 -3.18055e-015 -6.36111e-015 -6.36111e-015 9.54166e-015 3.97569e-015 -1.73291e-006 -3.55778e-006 2.68113e-006 -2.28671e-006 3.39616e-006 3.52242e-007 -6.36111e-015 9.54166e-015 3.97569e-015 -1.73291e-006 -3.55778e-006 2.68113e-006 -2.28671e-006 3.39616e-006 3.52242e-007 4.01451 -20.2024 12.4129 4.00735 69.4495 -1.30196 -8.52065 46.7462 19.0115 -4.05325 -20.2051 -12.5221 -4.17276 69.4224 1.50844 8.7738 47.4708 -19.2658 
1.95792 45.7479 1.78305 0 15.8793 -0 -0.113644 0.924378 -0.531993 -0.218741 1.84977 -1.06236 -0.218741 1.84978 -1.06236 -0.00768436 -20.4242 -0.00335286 -3.28614e-007 -0.434745 -3.16729e-007 -6.96929 18.6927 1.51542 -44.9701 -1.74873 -1.34487 -44.426 31.6645 -21.4825 56.246 -5.13772 -1.21702 7.95139e-016 -6.36111e-015 -0 3.63893e-006 -1.69901e-006 5.21382e-007 4.77083e-015 -3.18055e-015 -3.18055e-015 1.59028e-015 -6.36111e-015 -1.59028e-015 -3.18055e-015 6.36111e-015 1.59028e-015 3.63893e-006 -1.69901e-006 5.21382e-007 2.38542e-015 -9.54166e-015 -1.59028e-015 -3.18055e-015 6.36111e-015 1.59028e-015 3.63893e-006 -1.69901e-006 5.21382e-007 2.38542e-015 -9.54166e-015 -1.59028e-015 1.59028e-015 -6.36111e-015 -1.59028e-015 -3.18055e-015 6.36111e-015 1.59028e-015 3.63893e-006 -1.69901e-006 5.21382e-007 2.38542e-015 -9.54166e-015 -1.59028e-015 -3.18055e-015 6.36111e-015 1.59028e-015 3.63893e-006 -1.69901e-006 5.21382e-007 2.38542e-015 -9.54166e-015 -1.59028e-015 25.0627 -5.00702 27.0838 42.3896 -3.35227 6.76985 30.5715 23.3981 14.397 -40.3684 3.59945 -27.6024 -3.39803e-007 -1.4462e-006 8.00378e-007 6.36111e-015 0 1.59028e-015 -6.79606e-007 -2.89239e-006 1.60076e-006 2.38542e-015 -3.18055e-015 3.18055e-015 -3.39803e-007 -1.4462e-006 8.00378e-007 -3.18055e-015 -9.54166e-015 -1.59028e-015 -6.79606e-007 -2.89239e-006 1.60076e-006 -3.39803e-007 -1.4462e-006 8.00378e-007 -3.18055e-015 -9.54166e-015 -1.59028e-015 -6.79606e-007 -2.89239e-006 1.60076e-006 2.38542e-015 -3.18055e-015 3.18055e-015 -3.39803e-007 -1.4462e-006 8.00378e-007 -3.18055e-015 -9.54166e-015 -1.59028e-015 -6.79606e-007 -2.89239e-006 1.60076e-006 -3.39803e-007 -1.4462e-006 8.00378e-007 -3.18055e-015 -9.54166e-015 -1.59028e-015 -6.79606e-007 -2.89239e-006 1.60076e-006 10.4905 -28.0472 19.5961 166.358 79.409 -161.238 -35.4243 63.1279 45.1333 -10.7766 -28.0446 -19.7139 -165.641 79.3853 160.538 36.8591 64.0676 -46.3733 
2.08698 49.1557 2.43771 0 14.1113 -0 -0.107894 1.33864 -0.488269 -0.204453 2.67814 -0.974415 -0.204453 2.67814 -0.974415 -0.0294359 -19.0486 -0.0130064 -1.32104e-008 -0.649237 -5.43657e-007 -6.08688 16.4777 1.08666 -41.5465 -1.67331 -0.873042 -42.4848 30.4482 -18.4555 52.2718 -5.89328 -2.03285 -8.74653e-015 3.18055e-015 3.18055e-015 -7.15625e-015 0 6.36111e-015 3.97569e-015 3.18055e-015 6.36111e-015 -7.15625e-015 3.18055e-015 -0 -1.11319e-014 0 4.77083e-015 3.18055e-015 3.18055e-015 -0 -7.95139e-015 0 3.18055e-015 -1.11319e-014 0 4.77083e-015 3.18055e-015 3.18055e-015 -0 -7.95139e-015 0 3.18055e-015 -7.15625e-015 3.18055e-015 -0 -1.11319e-014 0 4.77083e-015 3.18055e-015 3.18055e-015 -0 -7.95139e-015 0 3.18055e-015 -1.11319e-014 0 4.77083e-015 3.18055e-015 3.18055e-015 -0 -7.95139e-015 0 3.18055e-015 22.9633 -5.26236 23.0561 40.7941 -3.26096 8.91655 29.5469 24.0299 11.596 -37.9322 3.71139 -25.7915 -6.67818e-007 -2.93518e-006 1.50068e-006 9.54166e-015 3.18055e-015 -0 -3.33909e-007 -1.46759e-006 7.50339e-007 6.36111e-015 3.18055e-015 -1.59028e-015 -6.67818e-007 -2.93518e-006 1.50068e-006 -7.95139e-016 -6.36111e-015 -1.59028e-015 -3.33909e-007 -1.46759e-006 7.50339e-007 -6.67818e-007 -2.93518e-006 1.50068e-006 -7.95139e-016 -6.36111e-015 -1.59028e-015 -3.33909e-007 -1.46759e-006 7.50339e-007 6.36111e-015 3.18055e-015 -1.59028e-015 -6.67818e-007 -2.93518e-006 1.50068e-006 -7.95139e-016 -6.36111e-015 -1.59028e-015 -3.33909e-007 -1.46759e-006 7.50339e-007 -6.67818e-007 -2.93518e-006 1.50068e-006 -7.95139e-016 -6.36111e-015 -1.59028e-015 -3.33909e-007 -1.46759e-006 7.50339e-007 8.46537 -24.991 17.5765 142.062 86.4084 -137.628 -27.1582 60.0153 37.2791 -9.16784 -24.9983 -17.5887 -140.477 86.3368 136.065 27.8197 61.2657 -37.4372 
